<?xml version="1.0" standalone="no"?>
<!DOCTYPE svg PUBLIC "-//W3C//DTD SVG 20010904//EN"
 "http://www.w3.org/TR/2001/REC-SVG-20010904/DTD/svg10.dtd">
<svg version="1.0" xmlns="http://www.w3.org/2000/svg"
 width="600.000000pt" height="600.000000pt" viewBox="0 0 600.000000 600.000000"
 preserveAspectRatio="xMidYMid meet">
<metadata>
Created by potrace 1.10, written by Peter Selinger 2001-2011
</metadata>
<g transform="translate(0.000000,600.000000) scale(0.100000,-0.100000)"
fill="#ffffff" stroke="none">
<path d="M3355 5290 c-3 -5 0 -12 7 -14 23 -8 93 -1 98 9 7 14 -96 19 -105 5z"/>
<path d="M2874 5267 c-2 -7 -3 -68 -2 -135 4 -148 22 -170 26 -32 3 101 12
127 32 89 17 -32 133 -189 140 -189 3 0 12 5 20 10 23 14 28 255 6 263 -24 10
-45 -19 -41 -56 16 -131 16 -129 -7 -125 -13 2 -24 11 -27 23 -2 11 -24 47
-49 80 -63 83 -87 101 -98 72z"/>
<path d="M2747 5263 c-2 -5 -1 -47 2 -95 3 -48 4 -97 1 -110 -8 -33 -53 -47
-88 -27 -22 12 -28 24 -34 69 -14 106 -23 135 -41 138 -14 3 -17 -5 -17 -50 0
-30 9 -82 21 -116 16 -48 27 -65 55 -81 44 -26 54 -26 97 -1 46 27 75 90 58
127 -7 14 -15 55 -18 90 -4 42 -10 63 -19 63 -7 0 -15 -3 -17 -7z"/>
<path d="M3176 5262 c-4 -7 -9 -196 -7 -249 1 -7 7 -13 15 -13 9 0 15 25 20
93 3 51 10 106 15 122 4 17 6 36 4 43 -5 13 -39 17 -47 4z"/>
<path d="M3365 5213 c-10 -16 -24 -32 -32 -36 -7 -4 -13 -17 -13 -28 0 -11 -7
-22 -15 -25 -8 -4 -15 -11 -15 -16 0 -6 -14 -31 -31 -55 -19 -29 -27 -49 -21
-55 14 -14 49 7 57 33 5 16 12 19 28 14 12 -4 42 -10 67 -14 40 -5 45 -9 50
-36 4 -22 11 -30 25 -30 14 0 19 6 17 20 -10 64 -20 103 -30 122 -7 12 -12 33
-12 47 0 29 -30 86 -46 86 -7 0 -20 -12 -29 -27z m45 -93 c0 -27 -5 -52 -10
-55 -14 -9 -60 22 -60 39 0 20 50 77 61 70 5 -3 9 -27 9 -54z"/>
<path d="M3599 5147 c-77 -69 -89 -127 -39 -195 17 -23 36 -42 44 -42 7 0 19
-7 26 -15 36 -43 152 14 183 89 9 23 17 47 17 54 0 30 -43 94 -80 117 -57 36
-105 33 -151 -8z m126 -24 c25 -12 38 -26 44 -49 17 -63 -6 -115 -65 -140 -26
-11 -36 -11 -67 4 -68 30 -75 128 -14 176 38 30 54 32 102 9z"/>
<path d="M2260 5155 c-7 -9 -16 -62 -20 -125 -4 -60 -13 -116 -19 -124 -9 -11
-8 -15 5 -20 32 -12 44 -6 44 23 0 33 30 61 65 61 12 0 26 5 32 11 7 7 19 3
41 -15 50 -43 93 -29 46 15 -14 13 -57 61 -96 107 -39 45 -74 82 -78 82 -4 0
-13 -7 -20 -15z m80 -100 c26 -43 20 -55 -30 -55 l-38 0 0 45 c1 40 4 45 24
45 15 0 30 -12 44 -35z"/>
<path d="M2010 5071 c-71 -38 -100 -99 -80 -164 17 -53 26 -64 72 -93 46 -30
86 -30 133 -3 54 32 76 89 35 89 -13 0 -20 -7 -20 -20 0 -13 -12 -25 -36 -35
-51 -21 -64 -19 -107 16 -33 27 -37 35 -37 78 0 57 30 92 82 95 28 1 33 6 36
29 3 23 0 27 -20 27 -13 -1 -39 -9 -58 -19z"/>
<path d="M4010 5015 c0 -8 3 -15 8 -15 4 0 18 -9 30 -18 l24 -18 -32 -50 c-18
-27 -46 -69 -62 -93 -33 -49 -32 -75 4 -62 12 4 25 17 28 27 3 10 12 30 21 44
9 14 29 44 43 68 28 44 45 52 66 27 16 -19 50 -20 50 -1 0 19 -37 48 -97 75
-11 5 -24 15 -28 20 -10 17 -55 13 -55 -4z"/>
<path d="M1815 4960 c-7 -12 58 -147 84 -173 6 -6 11 -19 11 -29 0 -19 35 -42
50 -33 15 9 12 32 -5 39 -8 3 -15 12 -15 20 0 8 -12 34 -27 58 -48 74 -53 82
-63 106 -10 23 -25 29 -35 12z"/>
<path d="M1710 4876 c0 -7 17 -35 38 -62 41 -54 65 -94 60 -100 -5 -5 -91 26
-102 37 -6 5 -20 9 -32 9 -12 0 -27 7 -34 15 -7 9 -29 15 -51 15 -54 0 -51
-21 16 -117 30 -43 59 -88 65 -100 10 -25 50 -32 50 -10 0 17 -54 99 -85 129
-42 41 -4 58 50 21 11 -7 28 -13 39 -13 11 0 27 -6 35 -14 9 -7 37 -17 64 -20
37 -6 48 -4 53 8 9 22 -123 216 -147 216 -10 0 -19 -6 -19 -14z"/>
<path d="M4246 4865 c-3 -8 -13 -15 -22 -15 -9 0 -33 -13 -54 -30 -21 -16 -42
-30 -48 -30 -5 0 -15 -7 -22 -15 -7 -8 -20 -15 -30 -15 -18 0 -30 -19 -30 -46
0 -18 24 -18 40 1 7 8 26 15 42 15 16 0 31 -6 34 -15 4 -8 12 -15 19 -15 24 0
45 -36 45 -78 0 -72 24 -50 44 41 10 45 25 106 33 134 13 43 13 56 3 68 -16
19 -46 19 -54 0z m4 -82 c0 -57 -11 -69 -49 -53 -38 15 -41 47 -6 60 14 5 25
14 25 20 0 5 7 10 15 10 11 0 15 -11 15 -37z"/>
<path d="M4388 4759 c-10 -17 -18 -41 -18 -54 0 -12 -7 -28 -15 -35 -8 -7 -15
-22 -15 -34 0 -12 -7 -31 -15 -42 -14 -18 -20 -75 -10 -86 7 -7 73 16 87 30 7
7 20 12 29 12 9 0 22 7 29 15 7 8 20 15 30 15 10 0 23 6 30 14 6 8 21 16 33
18 12 2 22 10 22 18 0 20 -60 17 -84 -4 -10 -9 -23 -16 -30 -16 -7 0 -24 -9
-38 -20 -14 -11 -32 -20 -39 -20 -18 0 -18 41 1 66 8 10 15 28 15 39 0 11 7
29 15 39 18 24 20 76 3 76 -7 0 -21 -14 -30 -31z"/>
<path d="M1337 4672 c-19 -21 -22 -42 -7 -42 15 0 11 -62 -5 -84 -19 -25 -19
-60 0 -76 8 -7 15 -18 15 -25 0 -6 16 -26 35 -43 30 -28 41 -32 92 -32 62 1
92 18 126 72 44 71 -4 178 -93 204 -38 12 -50 12 -83 -1 -47 -19 -47 -19 -47
3 0 33 -15 44 -33 24z m200 -99 c46 -51 45 -91 -4 -138 -42 -41 -67 -44 -114
-12 -44 30 -61 63 -53 106 9 54 41 81 94 81 39 0 49 -5 77 -37z"/>
<path d="M3012 4669 l-22 -9 2 -572 3 -573 -22 -22 c-12 -12 -34 -23 -49 -25
l-27 -3 0 -129 c-1 -139 7 -160 39 -106 19 31 60 40 58 13 -1 -7 -2 -27 -2
-43 l-2 -31 -57 3 -58 3 0 158 c0 129 3 161 15 170 13 10 15 67 15 398 0 307
3 389 13 402 29 34 -18 80 -64 63 -13 -5 -15 -15 -10 -49 3 -23 6 -215 7 -427
l0 -385 -42 -3 c-28 -2 -47 2 -60 14 -35 32 -49 2 -55 -117 -3 -57 -7 -120
-10 -139 l-6 -35 -12 25 c-8 17 -10 62 -6 145 3 66 4 126 2 133 -6 18 -20 15
-27 -8 -3 -11 -13 -20 -21 -20 -22 0 -121 -47 -129 -61 -10 -16 31 -47 73 -55
46 -9 89 -49 73 -68 -6 -7 -10 -27 -9 -44 3 -39 -38 -99 -72 -105 -33 -7 -40
-1 -40 33 0 16 -4 31 -8 34 -10 6 -52 -21 -52 -34 0 -5 -13 -29 -30 -53 -16
-25 -30 -51 -30 -59 0 -8 -4 -18 -9 -23 -20 -24 -42 -120 -36 -161 5 -38 3
-45 -22 -68 -36 -34 -52 -33 -60 4 -7 39 -25 34 -34 -10 -7 -34 -28 -55 -42
-41 -4 4 -6 77 -5 161 l3 154 32 7 c18 3 40 12 48 19 26 22 39 7 36 -43 -3
-51 14 -65 23 -19 5 29 10 103 7 138 0 12 -20 42 -44 68 -42 45 -45 46 -103
46 -37 0 -68 -6 -80 -15 -10 -8 -29 -15 -40 -15 -12 0 -27 -7 -34 -15 -7 -8
-23 -15 -36 -15 -12 0 -25 -4 -28 -9 -3 -5 -43 -21 -88 -35 -46 -15 -91 -31
-100 -36 -10 -6 -29 -10 -42 -10 -14 0 -28 -5 -31 -11 -4 -5 -18 -14 -31 -19
-55 -21 -85 -178 -46 -240 19 -30 53 -59 70 -60 6 0 12 -4 12 -10 0 -5 8 -10
19 -10 10 0 24 -7 31 -15 7 -8 21 -15 31 -15 9 0 24 -6 31 -13 7 -8 31 -17 52
-21 22 -4 49 -14 62 -22 24 -17 69 -16 69 1 0 6 -15 11 -33 13 -18 2 -36 10
-39 18 -3 8 -15 14 -27 14 -12 0 -39 9 -61 20 -22 11 -47 20 -56 20 -9 0 -22
7 -29 15 -7 8 -18 15 -24 15 -25 0 -66 26 -64 40 2 8 16 16 31 18 15 2 27 8
27 13 0 5 10 9 23 9 12 0 29 5 37 10 11 7 22 2 41 -18 33 -33 35 -34 141 -105
47 -32 89 -65 92 -73 3 -8 -3 -20 -14 -26 -11 -7 -20 -23 -20 -35 0 -18 -6
-23 -24 -23 -13 0 -29 -7 -36 -15 -7 -8 -21 -15 -30 -15 -10 0 -31 -6 -47 -14
-37 -18 -90 -36 -133 -45 -19 -4 -45 -13 -57 -19 -12 -7 -39 -12 -61 -12 -70
0 -151 -47 -152 -89 0 -8 -6 -22 -13 -30 -7 -9 -22 -35 -32 -59 -15 -34 -16
-47 -7 -67 13 -28 32 -31 70 -11 15 8 59 29 97 46 39 17 77 36 85 41 8 5 27
14 43 20 15 6 27 15 27 20 0 5 6 9 13 9 8 0 34 11 58 25 24 14 51 28 59 32 8
3 33 18 55 32 94 60 144 85 152 77 3 -3 12 -1 20 6 19 16 30 1 15 -22 -17 -28
-15 -60 6 -83 15 -17 17 -42 17 -209 l0 -190 28 -24 c29 -25 90 -33 102 -14 3
6 17 10 30 10 13 0 26 4 29 9 8 12 212 111 228 111 19 0 68 48 79 77 5 13 9
36 9 51 -1 32 -29 111 -50 138 -17 22 -75 64 -88 64 -5 0 -15 7 -22 15 -7 8
-19 15 -28 15 -8 0 -20 6 -26 14 -6 7 -48 41 -93 75 -46 34 -83 68 -83 76 0
19 62 30 100 17 16 -6 45 -8 63 -5 31 5 35 2 44 -24 11 -29 95 -123 111 -123
5 0 15 -7 22 -15 7 -8 21 -15 31 -15 11 0 19 -4 19 -9 0 -5 12 -16 26 -26 19
-12 29 -14 37 -6 6 6 47 11 94 11 80 0 83 -1 89 -25 11 -45 59 -75 118 -75 47
0 56 4 87 36 l34 36 102 -5 c96 -5 103 -4 123 18 13 14 29 21 41 18 10 -3 19
-1 19 4 0 6 20 23 45 39 25 15 47 35 50 43 3 9 19 31 35 50 17 18 30 42 30 52
0 9 6 19 12 21 13 5 20 118 8 118 -13 0 -32 -77 -25 -99 5 -15 2 -21 -9 -21
-10 0 -16 -9 -16 -22 0 -13 -14 -36 -30 -52 -17 -16 -30 -33 -30 -38 0 -4 -4
-8 -10 -8 -5 0 -23 -13 -40 -30 -17 -17 -35 -30 -41 -30 -6 0 -26 -7 -45 -16
-32 -15 -36 -15 -71 3 -33 17 -38 25 -41 61 -2 31 2 46 17 61 12 12 21 26 21
31 0 17 -28 11 -49 -11 -22 -24 -51 -20 -52 8 0 10 -1 43 -2 73 l-1 55 54 3
c81 3 100 10 100 32 0 14 -16 27 -55 45 -30 15 -55 31 -55 36 0 5 -6 9 -14 9
-21 0 -37 50 -28 85 6 23 15 31 36 33 16 2 33 -1 39 -7 19 -19 56 -12 86 18
16 16 35 31 43 33 9 3 5 15 -15 41 -21 28 -35 37 -58 37 -24 0 -30 -4 -27 -17
2 -10 13 -19 26 -21 12 -2 22 -10 22 -18 0 -22 -30 -64 -46 -64 -24 0 -75 61
-68 82 3 10 7 33 10 51 6 49 30 61 72 37 18 -11 38 -18 43 -14 11 7 0 134 -13
151 -5 7 -5 14 2 18 13 8 14 321 0 330 -5 3 -10 21 -10 40 0 56 -8 66 -49 59
-29 -5 -40 -2 -55 15 -18 20 -19 36 -16 199 2 97 4 197 6 222 10 135 12 125
-19 128 -49 6 -77 -39 -42 -68 14 -11 16 -47 14 -249 0 -130 2 -244 6 -255 5
-11 3 -21 -4 -26 -8 -4 -14 -38 -16 -84 -5 -95 -27 -132 -75 -123 -33 7 -31
16 -35 -103 -2 -86 -3 -90 -16 -90 -7 0 -9 30 -5 98 7 127 7 295 0 758 -4 210
-3 395 0 410 14 53 26 1 27 -110 0 -145 16 -194 20 -63 6 194 6 199 -16 207
-11 4 -30 4 -43 -1z m-112 -350 c0 -20 -15 -26 -25 -9 -9 15 3 43 15 35 5 -3
10 -15 10 -26z m298 -5 c-5 -28 -28 -29 -28 -1 0 13 3 27 7 31 10 10 25 -10
21 -30z m59 -571 c3 -10 20 -31 37 -47 41 -39 38 -84 -10 -131 -19 -19 -41
-35 -49 -35 -33 0 -43 -41 -44 -179 0 -74 4 -142 9 -152 7 -12 6 -19 -5 -23
-22 -8 -26 6 -24 106 2 121 1 138 -11 138 -5 0 -12 -11 -16 -25 -3 -13 -12
-29 -20 -36 -8 -6 -14 -25 -14 -41 0 -22 -7 -33 -30 -46 -16 -9 -31 -24 -31
-32 -1 -8 -2 -24 -3 -35 -1 -11 -5 -21 -11 -23 -14 -3 -19 67 -5 82 5 8 8 21
4 30 -4 9 8 37 29 68 19 29 39 63 46 75 6 13 22 25 35 29 17 4 26 15 30 37 8
38 16 111 16 150 1 15 5 27 11 27 5 0 7 16 3 40 -6 38 -5 40 20 40 16 0 29 -7
33 -17z m63 -396 c0 -17 -10 -28 -40 -41 -48 -21 -69 -13 -43 16 14 16 52 38
81 47 1 1 2 -9 2 -22z m-514 -12 c7 -17 -65 -117 -77 -109 -13 7 -22 71 -15
99 5 21 12 25 47 25 26 0 42 -5 45 -15z m-86 -145 c0 -11 -5 -20 -11 -20 -6 0
-27 -18 -46 -40 -20 -22 -41 -40 -47 -40 -14 0 -48 -39 -62 -70 -6 -14 -19
-42 -28 -63 -9 -21 -16 -58 -16 -83 0 -41 2 -44 23 -39 14 4 42 -4 77 -23 55
-29 182 -58 201 -46 14 8 49 -25 49 -47 0 -54 -29 -63 -71 -23 -33 32 -74 27
-91 -10 -16 -37 -51 -38 -79 -3 -13 16 -29 34 -35 41 -6 6 -13 22 -17 36 -6
24 -47 60 -47 41 0 -14 20 -65 28 -71 4 -3 14 -18 22 -35 9 -16 32 -41 53 -54
20 -13 37 -30 37 -38 0 -7 3 -13 8 -13 4 0 13 -9 20 -20 18 -29 -9 -38 -37
-13 -33 30 -50 43 -57 43 -10 0 -77 71 -97 102 -9 15 -17 37 -17 49 0 12 -7
27 -16 34 -13 9 -16 30 -16 96 0 69 5 94 26 142 27 59 104 147 130 147 8 0 18
5 21 11 9 14 44 28 73 28 16 1 22 -5 22 -19z m74 7 c13 -10 17 -24 14 -61 -3
-43 -6 -49 -34 -61 -26 -11 -33 -10 -53 6 -21 17 -21 19 -5 44 9 14 25 25 35
25 15 0 17 5 13 30 -7 32 2 37 30 17z m390 -70 c33 -24 13 -47 -41 -48 -47 0
-47 -1 -25 -16 22 -15 32 -73 13 -73 -5 0 -16 -3 -24 -6 -10 -3 -20 5 -30 25
-13 26 -13 32 -1 42 25 20 15 29 -32 29 -32 0 -51 -5 -59 -17 -12 -15 -15 -15
-49 1 -19 9 -48 15 -63 14 -23 -2 -29 1 -31 21 -2 13 1 27 8 31 6 4 80 8 163
9 117 1 156 -1 171 -12z m-1047 -45 c7 -4 12 -53 14 -141 3 -129 2 -134 -20
-152 -30 -25 -58 -24 -71 1 -6 11 -17 20 -25 20 -8 0 -15 5 -15 10 0 6 -11 15
-25 20 -14 5 -25 14 -25 20 0 5 -6 10 -14 10 -8 0 -16 6 -19 14 -3 7 -26 24
-52 36 -32 15 -44 27 -41 37 3 8 6 19 6 24 0 5 9 9 21 9 11 0 33 6 47 13 15 8
42 21 60 30 19 9 41 17 50 17 9 0 31 9 47 20 32 21 44 24 62 12z m553 -13 c0
-29 -31 -79 -49 -79 -8 0 -22 -7 -32 -16 -21 -19 -49 -12 -49 11 0 9 16 30 35
48 19 17 35 38 35 44 0 8 13 13 30 13 24 0 30 -4 30 -21z m241 -83 c16 -3 29
-11 29 -18 0 -6 9 -21 20 -33 28 -30 17 -59 -19 -50 -61 15 -62 14 -67 -45 -5
-68 6 -91 36 -72 25 16 57 7 63 -16 7 -29 2 -76 -11 -99 -14 -26 -2 -38 31
-29 34 8 86 -40 94 -87 9 -55 -23 -87 -88 -87 -39 0 -49 4 -63 25 -16 24 -16
26 0 32 9 3 25 1 35 -5 25 -16 72 2 67 26 -3 15 -17 17 -106 20 -99 3 -102 3
-108 27 -10 41 1 55 46 55 46 0 48 5 16 43 -14 18 -21 37 -19 52 3 12 0 26 -6
29 -16 10 -14 129 3 160 16 31 10 66 -11 66 -9 0 -12 -6 -9 -17 3 -10 -2 -28
-12 -40 -15 -19 -29 -22 -115 -25 -79 -2 -97 0 -95 11 2 8 23 20 47 27 38 11
49 11 73 -2 23 -12 33 -13 44 -3 13 10 12 14 -2 30 -22 24 -3 49 37 49 15 0
31 5 35 12 5 8 10 5 17 -9 5 -12 22 -24 38 -27z m112 -41 c-6 -80 -6 -80 45
-75 14 1 22 -4 22 -14 0 -8 7 -16 17 -18 14 -3 16 -15 14 -83 -1 -44 -5 -90
-7 -102 -5 -18 -1 -22 27 -25 30 -3 34 -7 47 -56 8 -29 13 -54 11 -56 -2 -2
-19 -1 -36 1 -24 4 -33 11 -33 24 0 25 -33 88 -46 89 -16 0 -64 54 -64 72 0 9
8 19 17 22 10 4 13 10 7 14 -31 22 -42 61 -43 150 -1 51 -2 95 -2 100 -3 20 2
32 15 32 12 0 13 -14 9 -75z m-602 -165 c5 0 9 -7 9 -15 0 -17 -45 -21 -55 -5
-9 15 5 32 22 26 8 -3 19 -6 24 -6z m347 -109 c26 -23 30 -76 6 -109 -20 -29
-40 -28 -61 6 -10 15 -23 31 -30 35 -18 11 -17 57 1 57 8 0 16 7 20 15 7 20
36 18 64 -4z m-435 -102 c54 -50 97 -95 97 -101 0 -5 9 -21 20 -35 11 -14 20
-34 20 -44 0 -24 16 -25 22 -1 7 27 -23 90 -46 96 -17 4 -18 8 -8 18 8 8 17 9
26 3 8 -6 35 -23 60 -40 68 -44 73 -105 9 -105 -14 0 -38 -13 -55 -30 -16 -16
-38 -30 -48 -30 -9 0 -23 -7 -30 -15 -7 -8 -20 -15 -30 -15 -10 0 -23 -7 -30
-15 -7 -8 -21 -15 -31 -15 -10 0 -21 -4 -24 -10 -11 -18 -45 -11 -70 15 -22
21 -25 33 -25 102 -1 43 -7 114 -15 158 -8 44 -15 87 -15 97 0 14 53 57 71 58
3 0 49 -41 102 -91z"/>
<path d="M3047 2843 c-11 -11 -8 -63 4 -63 20 0 49 21 49 35 0 8 -9 19 -19 25
-23 12 -26 12 -34 3z"/>
<path d="M4586 4569 c-50 -39 -156 -150 -156 -162 0 -16 102 -117 118 -117 23
0 12 29 -23 63 -19 19 -35 43 -35 54 0 18 28 53 42 53 2 0 24 -18 47 -40 65
-62 89 -30 26 33 -19 19 -35 40 -35 45 0 6 12 20 26 31 l27 21 39 -45 c39 -44
68 -58 68 -32 0 12 -100 117 -111 117 -4 0 -19 -10 -33 -21z"/>
<path d="M1190 4402 c0 -15 5 -33 11 -39 12 -12 33 -46 48 -80 5 -11 15 -24
20 -28 6 -3 11 -13 11 -21 0 -19 -41 -18 -87 1 -48 20 -119 20 -127 -1 -3 -9
-6 -19 -6 -23 0 -8 96 -81 107 -81 5 0 21 -13 36 -29 34 -35 66 -45 74 -25 3
8 4 16 2 18 -2 1 -22 16 -44 32 -22 17 -48 34 -57 37 -10 4 -18 13 -18 22 0
13 7 15 38 10 20 -4 54 -13 75 -21 75 -28 99 -15 67 38 -11 18 -23 40 -27 48
-3 8 -12 19 -20 23 -7 4 -13 13 -13 19 0 6 -7 19 -16 29 -9 10 -13 23 -9 29 5
8 13 5 26 -9 29 -31 129 -92 140 -86 21 13 6 33 -57 75 -36 25 -77 51 -90 58
-13 7 -24 17 -24 23 0 5 -13 9 -30 9 -26 0 -30 -4 -30 -28z"/>
<path d="M4720 4364 c-25 -19 -56 -45 -70 -58 -14 -12 -35 -28 -47 -35 -23
-12 -32 -51 -12 -51 24 0 199 146 199 167 0 22 -23 15 -70 -23z"/>
<path d="M3057 4313 c-10 -10 -8 -86 3 -103 7 -11 10 3 10 48 0 62 -1 67 -13
55z"/>
<path d="M4780 4269 c-63 -45 -97 -66 -122 -75 -20 -7 -25 -54 -5 -54 6 0 25
11 41 25 41 35 66 33 66 -4 0 -17 -5 -33 -10 -36 -11 -7 -40 -70 -40 -87 0
-18 44 -3 50 18 3 11 14 33 26 49 20 27 22 27 44 12 21 -15 26 -15 49 -1 14 9
34 26 44 40 17 23 17 25 -8 66 -13 24 -29 53 -35 66 -13 31 -36 26 -100 -19z
m94 -35 c3 -9 6 -29 6 -45 0 -25 -4 -29 -27 -29 -48 0 -80 49 -51 78 17 17 65
15 72 -4z"/>
<path d="M2569 4243 c-16 -14 -29 -29 -29 -34 0 -12 -49 -59 -61 -59 -4 0 -20
5 -34 12 -31 14 -40 6 -26 -20 7 -14 28 -23 72 -31 34 -6 69 -17 79 -26 19
-17 85 -20 95 -5 3 6 13 10 21 10 11 0 14 -19 14 -98 0 -62 4 -102 12 -110 13
-13 12 -122 -2 -136 -5 -5 -11 8 -15 30 -13 76 -20 68 -23 -25 -3 -106 3 -138
20 -107 8 15 12 16 19 5 5 -8 9 -27 9 -43 0 -16 3 -26 7 -23 4 4 10 80 14 170
4 89 12 195 18 236 11 77 5 112 -12 70 -9 -23 -9 -23 -17 -4 -5 11 -9 32 -9
48 -1 23 -5 27 -31 27 -20 0 -30 -5 -30 -15 0 -11 -12 -15 -45 -15 -25 0 -45
5 -45 10 0 6 -12 15 -27 21 l-28 11 28 23 c15 13 27 28 27 34 0 5 18 19 41 30
l41 22 34 -22 c22 -13 34 -28 34 -43 0 -24 35 -64 47 -53 3 4 1 25 -6 47 -24
82 -128 116 -192 63z"/>
<path d="M3342 4223 c-12 -15 -22 -35 -22 -44 0 -10 -5 -19 -10 -21 -13 -4
-14 -24 -12 -150 1 -58 6 -98 12 -98 6 0 10 15 11 33 1 17 4 43 8 57 7 24 7
24 18 5 11 -19 12 -19 19 -2 4 10 2 23 -5 30 -33 33 24 58 61 26 25 -23 27
-23 47 -6 22 18 96 41 109 33 18 -11 69 15 81 41 11 24 10 25 -11 18 -57 -18
-76 -17 -97 4 -12 12 -21 29 -21 39 0 10 -10 26 -22 36 -24 21 -84 30 -94 15
-3 -5 2 -9 10 -9 31 0 65 -24 75 -51 5 -16 15 -29 20 -29 25 0 10 -38 -19 -49
-16 -5 -30 -15 -30 -20 0 -21 -32 -11 -60 19 -34 37 -48 38 -56 5 -9 -37 -28
-25 -32 18 -2 28 1 37 12 37 9 0 16 7 16 15 0 8 9 23 20 32 11 10 20 23 20 30
0 22 -25 14 -48 -14z"/>
<path d="M3053 4105 c0 -22 2 -30 4 -17 2 12 2 30 0 40 -3 9 -5 -1 -4 -23z"/>
<path d="M1010 4111 c-33 -21 -59 -53 -60 -71 0 -9 -5 -21 -11 -27 -17 -17 -3
-42 33 -59 18 -8 40 -18 48 -23 8 -5 22 -12 30 -15 15 -6 25 -11 65 -34 38
-23 46 -25 57 -14 15 15 -17 52 -43 52 -21 0 -45 38 -32 51 4 4 37 9 73 11 57
3 65 5 68 24 4 27 -20 37 -54 24 -42 -16 -53 -12 -70 28 -10 26 -26 44 -47 54
-29 14 -34 14 -57 -1z m58 -87 c3 -47 -9 -57 -55 -45 -54 14 -30 92 27 88 22
-2 25 -7 28 -43z"/>
<path d="M4940 4085 c-7 -8 -21 -15 -32 -15 -10 0 -21 -7 -24 -15 -4 -8 -14
-15 -24 -15 -10 0 -23 -7 -30 -15 -7 -8 -18 -15 -25 -15 -34 0 -61 -72 -30
-84 8 -3 15 -14 15 -24 0 -11 7 -25 15 -32 8 -7 15 -19 15 -27 0 -8 7 -13 18
-11 20 5 19 45 -2 62 -8 6 -17 25 -21 42 -5 29 -3 34 25 47 l31 16 27 -49 c16
-30 34 -50 45 -50 24 0 21 21 -9 65 -33 50 -29 69 18 73 30 3 37 -1 44 -20 10
-32 37 -67 52 -68 15 0 16 42 1 57 -14 14 -36 52 -45 76 -8 21 -47 22 -64 2z"/>
<path d="M3045 3816 c-7 -196 -4 -233 16 -221 12 8 12 425 0 425 -5 0 -12 -92
-16 -204z"/>
<path d="M4212 3979 c-34 -10 -107 -78 -193 -179 -26 -30 -49 -53 -52 -50 -8
7 16 77 31 92 14 14 16 104 3 112 -16 10 -105 -69 -125 -110 -10 -21 -23 -48
-29 -59 -5 -11 -12 -39 -14 -63 -2 -24 -12 -61 -23 -83 -21 -39 -21 -39 -45
-22 -13 10 -25 23 -25 28 0 15 -60 78 -95 100 -46 30 -88 42 -171 50 -87 8
-115 26 -107 69 3 14 1 26 -5 26 -13 0 -20 -65 -10 -84 21 -37 42 -546 24
-574 -13 -21 4 -49 32 -55 28 -6 122 -86 122 -104 0 -6 7 -16 15 -23 8 -7 15
-21 15 -31 0 -11 5 -19 10 -19 6 0 10 -14 10 -30 0 -35 25 -100 38 -100 13 0
1 113 -14 131 -8 8 -14 23 -14 31 0 9 -7 21 -15 28 -8 7 -15 21 -15 31 0 16 8
19 59 19 38 0 63 5 70 14 6 7 24 16 39 20 62 13 79 55 24 57 -34 0 -150 31
-179 47 -12 7 -34 12 -50 12 -48 0 -108 26 -108 47 0 15 7 18 42 16 23 -1 53
-9 67 -18 36 -24 287 -25 314 -3 22 20 72 32 72 18 0 -22 31 -22 53 1 31 34
73 59 96 59 12 0 45 25 76 55 51 52 55 59 55 104 0 48 -20 81 -48 81 -7 0 -12
5 -12 10 0 6 -20 10 -45 10 -34 0 -45 4 -45 16 0 9 -9 27 -20 41 -26 34 -18
43 39 43 31 0 53 5 61 15 7 8 19 15 26 15 18 0 104 79 104 95 0 7 7 18 15 25
8 7 15 19 15 28 0 8 7 20 17 27 9 7 14 19 10 29 -7 18 -43 20 -95 5z m-242
-309 c0 -12 -28 -25 -36 -17 -9 9 6 27 22 27 8 0 14 -5 14 -10z m-270 -66 c44
-18 52 -39 18 -49 -13 -4 -37 -18 -55 -31 -41 -31 -59 -30 -67 1 -9 37 -23 31
-47 -22 -24 -53 -50 -81 -94 -101 -26 -12 -31 -11 -42 5 -18 24 -8 64 28 118
16 24 29 46 29 50 0 4 10 15 23 26 29 24 149 26 207 3z m238 -30 c37 -9 75
-24 85 -32 18 -16 24 -62 8 -62 -5 0 -14 -13 -19 -30 -13 -37 -21 -39 -219
-42 -113 -2 -166 -7 -175 -15 -15 -16 -58 -17 -58 -2 0 13 41 48 56 49 6 0 17
7 24 15 10 12 30 15 77 14 70 -2 99 12 64 30 -31 17 -26 33 22 63 51 32 51 32
135 12z"/>
<path d="M5056 3845 c-11 -8 -34 -15 -50 -15 -17 0 -40 -7 -50 -15 -11 -8 -32
-15 -48 -15 -33 0 -59 -37 -37 -51 19 -12 25 -11 39 6 7 8 24 15 39 15 14 0
35 7 45 15 26 20 66 19 66 0 0 -8 -4 -15 -8 -15 -4 0 -26 -24 -47 -52 -22 -29
-52 -66 -68 -83 -51 -54 -16 -96 52 -61 16 9 43 16 59 16 16 0 35 7 42 15 7 8
28 15 47 15 35 0 50 17 40 45 -5 12 -10 12 -34 0 -15 -8 -37 -15 -48 -15 -11
-1 -31 -7 -45 -15 -28 -16 -70 -20 -70 -7 0 5 20 31 46 58 90 98 122 174 72
174 -13 0 -32 -7 -42 -15z"/>
<path d="M863 3819 c-18 -18 -6 -35 86 -126 76 -75 84 -86 73 -103 -7 -11 -12
-33 -12 -50 0 -18 -7 -33 -18 -39 -19 -10 -84 -1 -117 16 -11 6 -39 13 -62 17
-40 6 -46 3 -42 -21 3 -12 90 -43 119 -43 14 0 38 -7 54 -15 15 -8 36 -15 46
-15 25 0 50 32 50 66 1 16 7 40 15 54 19 33 19 79 0 86 -24 9 -39 44 -26 57 6
6 11 17 11 25 0 30 40 71 73 74 17 2 31 8 30 13 -4 15 -265 19 -280 4z m139
-26 c14 -3 16 -11 11 -36 -9 -48 -18 -52 -57 -22 -47 36 -49 66 -3 64 17 -1
40 -3 49 -6z"/>
<path d="M5097 3528 c-14 -18 -28 -52 -32 -75 -6 -37 -10 -43 -31 -43 -29 0
-46 29 -38 68 7 35 -7 47 -36 32 -34 -18 -26 -70 18 -118 22 -23 47 -42 57
-42 31 0 85 67 85 105 0 45 9 65 30 65 28 0 52 -35 48 -72 -2 -27 0 -33 17
-33 33 0 33 67 0 111 -36 47 -83 48 -118 2z"/>
<path d="M745 3411 c-23 -22 47 -45 187 -60 64 -7 78 -5 78 14 0 8 -19 16 -52
20 -29 4 -57 11 -63 15 -11 9 -143 19 -150 11z"/>
<path d="M726 3324 c-11 -11 -16 -35 -16 -82 l0 -67 88 -17 c111 -22 182 -24
182 -4 0 10 -16 17 -45 21 -66 10 -81 24 -67 65 19 52 16 72 -10 68 -20 -3
-24 -11 -28 -53 -5 -50 -5 -50 -43 -53 -46 -4 -54 12 -32 63 24 58 6 94 -29
59z"/>
<path d="M5208 3335 c-3 -3 -47 -9 -97 -14 -56 -5 -98 -14 -107 -22 -21 -22
-8 -181 15 -177 13 3 15 15 13 70 -4 58 -1 68 16 77 28 15 38 14 56 -5 10 -9
16 -33 16 -60 0 -38 3 -45 18 -42 14 3 17 14 17 63 0 57 1 60 26 63 33 4 46
-12 56 -72 11 -69 27 -62 31 12 2 46 -2 71 -13 88 -14 22 -35 31 -47 19z"/>
<path d="M3410 3077 c0 -7 13 -24 30 -37 16 -14 29 -29 30 -34 0 -5 7 -17 15
-26 19 -21 37 -147 24 -171 -5 -10 -9 -29 -9 -43 0 -14 -4 -26 -9 -26 -5 0
-12 -8 -15 -18 -11 -34 -64 -82 -90 -82 -16 0 -26 -6 -26 -14 0 -8 -11 -27
-25 -42 -24 -26 -25 -44 -3 -44 6 0 35 25 65 55 30 30 58 55 63 55 11 0 40 46
40 65 0 9 7 18 15 21 9 4 15 19 15 38 0 18 4 36 10 42 5 5 6 24 0 49 -5 22
-10 59 -10 81 0 28 -5 44 -15 48 -8 3 -15 10 -15 16 0 15 -64 80 -79 80 -6 0
-11 -6 -11 -13z"/>
<path d="M2270 2983 c0 -21 -3 -47 -5 -58 -5 -19 9 -54 18 -45 3 3 8 35 12 73
6 57 4 67 -9 67 -12 0 -16 -10 -16 -37z"/>
<path d="M4049 2763 c-52 -24 -101 -48 -109 -54 -8 -5 -22 -12 -30 -15 -8 -3
-22 -10 -30 -15 -29 -17 -161 -79 -169 -79 -5 0 -14 -7 -21 -15 -7 -8 -23 -15
-35 -15 -12 0 -28 -7 -35 -15 -7 -8 -20 -15 -30 -15 -10 0 -23 -7 -30 -15 -7
-8 -20 -15 -30 -15 -10 0 -23 -7 -30 -15 -7 -8 -20 -15 -30 -15 -10 0 -23 -7
-30 -15 -7 -8 -19 -15 -27 -15 -7 0 -25 -7 -38 -16 -14 -9 -36 -14 -51 -11
-16 3 -28 0 -31 -9 -5 -13 -57 -44 -75 -44 -6 0 -42 -16 -81 -35 -39 -19 -79
-35 -89 -35 -10 0 -18 -4 -18 -8 0 -9 -94 -54 -162 -78 -23 -8 -50 -21 -59
-30 -27 -24 -33 -2 -30 111 2 82 -1 104 -13 114 -9 8 -16 26 -16 42 0 19 -5
29 -15 29 -19 0 -19 -27 -1 -61 12 -23 23 -185 17 -251 0 -10 -31 -31 -78 -54
-43 -20 -79 -41 -81 -46 -2 -4 -14 -8 -26 -8 -12 0 -26 -4 -31 -9 -6 -5 -55
-28 -109 -51 -108 -46 -116 -49 -164 -73 -21 -11 -58 -17 -96 -17 -56 0 -65 3
-95 32 -35 34 -61 87 -61 123 0 14 -7 25 -20 28 -22 6 -25 25 -21 112 2 28 9
57 17 66 8 8 14 23 14 33 0 10 7 24 15 32 8 9 15 24 15 35 0 23 15 25 24 3 10
-27 7 -52 -9 -58 -9 -3 -15 -18 -15 -34 0 -16 -7 -35 -15 -42 -16 -13 -20 -90
-6 -125 6 -15 10 -5 16 40 4 33 13 70 21 82 8 12 14 34 14 48 0 15 7 33 15 41
20 21 19 61 -2 72 -16 9 -16 13 0 62 9 29 17 61 17 71 0 30 -18 22 -25 -11 -4
-16 -11 -30 -16 -30 -5 0 -9 -10 -9 -22 0 -30 -41 -131 -57 -141 -7 -4 -13
-17 -13 -28 0 -11 -7 -27 -15 -35 -8 -9 -15 -32 -15 -53 0 -20 -5 -42 -12 -49
-19 -19 -22 -240 -4 -293 9 -24 16 -54 16 -66 0 -29 90 -120 126 -129 16 -3
48 -12 70 -20 44 -14 112 -11 143 6 11 5 29 10 41 10 11 0 53 15 93 34 40 19
88 41 108 50 20 9 42 22 48 30 10 12 18 12 36 4 22 -10 21 -11 -36 -66 -43
-40 -59 -63 -59 -81 0 -46 10 -50 108 -50 57 0 90 4 87 9 -4 6 -35 10 -70 10
-76 0 -95 6 -95 30 0 16 12 18 122 19 115 1 124 3 160 27 21 15 38 31 38 35 0
5 9 9 19 9 10 0 21 7 25 15 3 8 11 15 17 15 6 0 27 14 46 30 51 45 64 25 14
-21 -23 -22 -46 -39 -51 -39 -5 0 -21 -11 -36 -25 -15 -14 -32 -25 -39 -25 -6
0 -21 -13 -33 -29 -11 -16 -38 -37 -59 -47 -24 -12 -39 -27 -41 -41 -2 -13
-17 -32 -33 -43 -24 -18 -29 -28 -29 -64 0 -27 6 -48 15 -56 8 -7 15 -23 15
-35 0 -12 7 -28 15 -35 8 -7 15 -18 15 -24 0 -24 48 -59 72 -53 34 8 110 36
130 47 10 6 23 10 29 10 10 0 37 11 114 45 17 7 39 16 50 19 11 2 60 19 108
35 48 17 96 31 107 31 10 0 22 5 25 10 3 6 21 10 39 10 19 0 39 7 46 15 7 8
27 15 44 15 18 0 41 7 52 15 10 8 33 15 50 15 16 0 34 4 40 10 11 11 115 36
221 53 39 7 75 15 79 20 4 4 26 7 49 7 23 0 50 7 61 15 11 8 42 15 74 15 30 0
68 7 84 15 15 8 49 15 75 15 25 0 64 5 86 11 22 7 76 14 119 18 46 3 81 11 83
18 4 12 -110 91 -164 114 -18 8 -33 19 -33 25 0 6 38 37 85 69 86 58 112 94
58 80 -29 -7 -89 -17 -202 -34 -34 -5 -68 -14 -74 -20 -6 -6 -31 -11 -56 -11
-26 -1 -57 -7 -71 -15 -14 -8 -36 -14 -49 -15 -13 0 -47 -6 -75 -14 -139 -40
-207 -56 -230 -56 -13 0 -28 -4 -31 -10 -3 -5 -18 -10 -32 -10 -14 0 -39 -6
-56 -14 -18 -8 -49 -17 -69 -21 -21 -3 -38 -10 -38 -15 0 -12 -67 -13 -73 -2
-8 11 24 44 72 76 24 15 58 42 75 60 18 17 65 57 104 89 40 32 91 76 113 98
22 22 58 51 80 65 22 14 42 31 46 39 3 8 11 15 19 15 7 0 17 6 21 13 4 7 44
44 88 81 44 38 82 73 83 78 2 4 8 8 14 8 10 0 26 14 114 96 50 47 56 76 24
117 -11 14 -20 32 -20 41 0 43 -78 148 -118 158 -11 3 -60 -14 -113 -39z m76
-33 c-3 -5 -13 -10 -21 -10 -8 0 -14 5 -14 10 0 6 9 10 21 10 11 0 17 -4 14
-10z m85 -41 c0 -11 -4 -17 -10 -14 -5 3 -10 13 -10 21 0 8 5 14 10 14 6 0 10
-9 10 -21z m-341 -95 c3 -16 1 -17 -13 -5 -19 16 -21 34 -3 29 6 -3 14 -13 16
-24z m-84 -34 c-3 -5 -16 -10 -28 -9 -21 0 -21 1 -2 9 28 12 37 12 30 0z m485
-39 c-79 -74 -144 -131 -151 -131 -5 0 -30 -21 -56 -47 -53 -52 -140 -126
-156 -132 -15 -6 -47 -40 -47 -51 0 -5 -7 -10 -15 -10 -8 0 -15 -7 -15 -15 0
-8 -4 -15 -10 -15 -5 0 -10 7 -10 15 0 8 4 15 9 15 21 0 18 51 -5 78 -13 15
-24 30 -24 35 0 4 -19 7 -43 7 -34 0 -49 -6 -70 -28 -15 -15 -27 -36 -27 -46
0 -33 34 -75 73 -91 45 -18 44 -31 -1 -51 -29 -12 -32 -12 -32 6 0 12 -16 26
-45 40 -24 12 -56 36 -71 53 l-26 31 44 38 c23 21 68 50 98 64 30 14 63 29 72
35 10 5 27 9 38 9 11 0 20 4 20 10 0 5 11 12 25 16 14 3 25 9 25 13 0 4 19 15
43 25 70 29 147 68 153 77 3 5 16 9 30 9 14 0 27 7 30 15 4 8 15 15 25 15 11
0 40 13 65 28 28 18 54 27 69 24 23 -4 23 -5 -15 -41z m-195 9 c3 -5 -3 -10
-14 -10 -12 0 -21 5 -21 10 0 6 6 10 14 10 8 0 18 -4 21 -10z m-196 -75 l1
-30 -18 35 c-13 25 -15 39 -8 48 8 11 11 10 17 -5 4 -10 8 -31 8 -48z m-296
15 c-5 -19 -23 -29 -23 -12 0 7 20 32 26 32 1 0 0 -9 -3 -20z m53 -137 c-10
-10 -36 18 -36 40 0 18 2 17 21 -7 12 -15 19 -30 15 -33z m-206 2 c0 -7 7 -21
16 -29 8 -9 14 -24 12 -34 -3 -13 -7 -10 -20 13 -23 44 -32 79 -19 71 6 -4 11
-13 11 -21z m-66 -61 c9 -23 7 -44 -3 -44 -5 0 -11 8 -15 18 -3 9 -9 23 -12
30 -3 6 1 12 9 12 8 0 18 -7 21 -16z m394 -56 c14 -14 16 -54 2 -63 -17 -11
-50 15 -50 39 0 36 24 48 48 24z m-718 -24 c0 -14 -3 -14 -15 -4 -8 7 -15 14
-15 16 0 2 7 4 15 4 8 0 15 -7 15 -16z m487 0 c2 -5 -24 -27 -57 -48 -33 -21
-60 -42 -60 -47 0 -5 -5 -9 -12 -9 -6 0 -22 -10 -34 -21 -28 -26 -54 -19 -54
14 0 29 35 56 115 87 33 13 64 28 70 32 11 10 27 6 32 -8z m-433 -97 c15 -24
-3 -35 -20 -13 -8 11 -14 24 -14 29 0 13 22 3 34 -16z m434 -12 c2 -16 10 -38
18 -49 8 -11 14 -31 14 -43 0 -18 6 -23 25 -23 19 0 26 7 33 33 4 17 14 32 20
31 7 -1 21 -2 32 -2 23 -2 28 -32 5 -32 -9 0 -18 -7 -21 -15 -4 -8 -13 -15
-21 -15 -8 0 -24 -11 -35 -25 -22 -28 -43 -32 -51 -10 -11 27 -81 115 -93 115
-6 0 -17 -6 -23 -14 -10 -12 -4 -25 31 -70 24 -30 51 -55 60 -55 28 -1 29 -17
3 -29 -14 -7 -25 -16 -25 -22 0 -5 -7 -10 -15 -10 -8 0 -15 -7 -15 -15 0 -8
-3 -15 -8 -15 -4 0 -20 -12 -37 -27 -47 -45 -87 -73 -96 -67 -5 3 -9 16 -9 30
0 32 -69 124 -92 124 -33 0 -32 -29 1 -64 30 -31 42 -76 20 -76 -13 0 -28 16
-52 53 -10 15 -26 27 -37 27 -32 0 -24 -40 15 -83 42 -46 43 -55 8 -62 -16 -4
-40 -13 -55 -21 -14 -8 -35 -14 -45 -14 -10 0 -23 -4 -28 -9 -6 -4 -44 -20
-85 -34 -42 -14 -87 -30 -100 -35 -14 -6 -32 -13 -40 -16 -8 -4 -28 -15 -45
-26 -47 -31 -56 -34 -68 -20 -9 9 -7 15 11 28 13 10 47 35 75 58 29 22 60 45
69 50 17 9 61 46 156 130 26 23 70 58 97 78 62 46 106 81 153 123 21 18 42 33
49 33 7 0 16 6 20 13 4 6 24 24 45 39 20 15 42 34 50 41 37 37 82 33 86 -8z
m-634 -31 c14 -15 26 -33 26 -40 0 -7 -16 2 -35 22 -19 19 -35 37 -35 39 0 12
20 3 44 -21z m400 11 c8 -23 -8 -43 -89 -109 -70 -57 -93 -67 -87 -36 2 8 4
35 5 60 2 38 5 45 24 48 12 2 27 10 33 18 7 8 23 14 36 14 12 0 26 5 29 10 10
15 42 12 49 -5z m-551 -68 c-3 -5 -10 -4 -15 1 -6 6 -7 16 -3 22 6 9 9 9 16
-1 4 -7 5 -17 2 -22z m-163 16 c0 -5 -7 -17 -15 -27 -14 -19 -15 -19 -15 7 0
17 5 27 15 27 8 0 15 -3 15 -7z m500 -70 c0 -60 -4 -69 -31 -91 -22 -17 -46
-6 -64 31 -24 48 -19 63 25 81 22 9 40 20 40 26 0 5 7 10 15 10 12 0 15 -13
15 -57z m-365 2 l30 -25 -32 0 c-29 0 -53 20 -53 44 0 13 27 4 55 -19z m215
-34 c0 -10 7 -24 15 -31 8 -7 15 -21 15 -32 0 -10 -7 -21 -15 -24 -8 -4 -15
-11 -15 -16 0 -16 -44 -47 -67 -48 -16 0 -23 6 -23 18 0 41 -58 56 -103 28
-29 -19 -69 -24 -74 -10 -4 13 50 47 92 58 39 10 139 57 143 68 7 16 32 8 32
-11z m-430 -13 c0 -16 -3 -19 -11 -11 -6 6 -8 16 -5 22 11 17 16 13 16 -11z
m-375 -38 c3 -5 -3 -10 -14 -10 -12 0 -21 5 -21 10 0 6 6 10 14 10 8 0 18 -4
21 -10z m1958 3 c-13 -2 -33 -2 -45 0 -13 2 -3 4 22 4 25 0 35 -2 23 -4z m-83
-32 c0 -16 -20 -23 -33 -13 -7 5 -21 12 -32 15 -11 2 -1 5 23 6 23 0 42 -3 42
-8z m-1188 -66 c9 -44 -34 -65 -131 -65 -65 0 -81 3 -81 15 0 9 9 15 24 15 13
0 29 7 36 15 17 21 47 19 81 -6 34 -24 54 -18 39 12 -6 11 -8 24 -5 29 12 19
33 10 37 -15z m996 -17 c7 -7 12 -18 12 -25 0 -8 -7 -6 -20 7 -11 11 -20 22
-20 25 0 9 16 5 28 -7z m381 -35 c1 -7 -3 -13 -9 -13 -5 0 -10 15 -9 33 0 27
2 29 9 12 5 -11 9 -26 9 -32z m-2079 7 c0 -5 -7 -10 -15 -10 -8 0 -15 5 -15
10 0 6 7 10 15 10 8 0 15 -4 15 -10z m215 0 c-3 -5 -13 -10 -21 -10 -8 0 -14
5 -14 10 0 6 9 10 21 10 11 0 17 -4 14 -10z m1325 -45 c0 -8 -4 -15 -10 -15
-5 0 -10 7 -10 15 0 8 5 15 10 15 6 0 10 -7 10 -15z m-180 -27 c0 -5 -4 -8
-10 -8 -5 0 -10 10 -10 23 0 18 2 19 10 7 5 -8 10 -18 10 -22z m208 -33 c10
-21 9 -25 -3 -25 -8 0 -15 4 -15 9 0 5 -3 16 -6 25 -10 26 12 18 24 -9z m-278
-46 c0 -20 -15 -26 -25 -9 -9 15 3 43 15 35 5 -3 10 -15 10 -26z m-282 9 c7
-7 12 -21 12 -32 0 -18 -1 -18 -25 4 -13 12 -22 27 -19 31 7 12 18 11 32 -3z
m-84 -70 c9 -12 16 -26 16 -31 0 -13 -49 27 -50 41 0 19 17 14 34 -10z m216
-24 c0 -8 -7 -14 -15 -14 -15 0 -21 21 -9 33 10 9 24 -2 24 -19z m-330 -14 c0
-16 -4 -30 -10 -30 -5 0 -10 3 -10 8 0 4 -3 17 -6 30 -5 16 -2 22 10 22 11 0
16 -9 16 -30z m175 -30 c10 -11 15 -23 12 -27 -8 -7 -47 25 -47 39 0 14 16 9
35 -12z m-295 -65 c0 -17 -16 -20 -25 -5 -3 5 -12 7 -20 3 -8 -3 -15 0 -15 6
0 6 14 11 30 11 20 0 30 -5 30 -15z"/>
<path d="M3350 1983 c0 -9 8 -25 17 -35 11 -13 13 -22 6 -29 -7 -7 -14 -5 -23
6 -7 8 -23 15 -36 15 -20 0 -24 -5 -24 -30 0 -16 4 -30 10 -30 5 0 20 -18 32
-40 20 -36 60 -61 74 -48 2 3 -3 22 -12 43 -15 36 -14 37 3 30 10 -4 30 -10
46 -13 43 -7 35 33 -19 96 -47 53 -74 66 -74 35z"/>
<path d="M3316 2682 c-2 -4 -1 -14 4 -21 11 -19 41 -6 34 14 -6 16 -29 20 -38
7z"/>
<path d="M2090 2441 c0 -12 5 -21 10 -21 6 0 10 6 10 14 0 8 -4 18 -10 21 -5
3 -10 -3 -10 -14z"/>
<path d="M1515 1613 c-4 -12 1 -23 14 -32 12 -7 21 -21 21 -29 0 -9 -35 -51
-77 -94 -56 -57 -74 -81 -66 -89 16 -16 38 -1 116 80 38 39 71 71 74 71 2 0
16 -14 30 -30 25 -30 43 -32 43 -5 0 14 -128 145 -141 145 -4 0 -10 -8 -14
-17z"/>
<path d="M4357 1542 c-6 -8 13 -83 32 -127 7 -16 19 -45 27 -63 8 -18 14 -44
14 -57 0 -18 5 -25 20 -25 24 0 37 27 21 43 -20 20 -12 42 29 81 37 35 42 37
85 31 41 -7 45 -6 45 14 0 15 -6 21 -22 21 -13 0 -32 7 -42 15 -11 8 -27 15
-37 15 -9 0 -22 7 -29 15 -7 8 -23 15 -35 15 -12 0 -28 7 -35 15 -13 15 -65
21 -73 7z m122 -74 c27 -16 26 -25 -1 -49 -30 -25 -48 -24 -48 2 0 12 -7 27
-17 34 -9 7 -14 19 -10 28 7 18 32 13 76 -15z"/>
<path d="M1660 1417 c-25 -12 -47 -25 -50 -29 -3 -4 -17 -12 -30 -17 -14 -6
-33 -15 -42 -21 -10 -5 -26 -14 -35 -19 -26 -12 -30 -51 -5 -51 11 0 22 7 26
15 10 26 49 16 96 -24 42 -36 44 -40 32 -65 -18 -40 -15 -48 16 -44 24 3 28 8
33 48 3 25 11 58 17 73 7 16 12 40 12 55 1 15 7 38 15 52 9 18 10 29 3 37 -15
18 -37 16 -88 -10z m40 -53 c0 -25 -28 -84 -40 -84 -3 1 -16 10 -29 21 -29 24
-22 43 25 70 40 24 44 23 44 -7z"/>
<path d="M4200 1412 c-71 -48 -85 -75 -52 -103 17 -15 40 -43 104 -128 35 -48
51 -54 56 -22 2 13 -9 31 -28 48 -22 20 -29 33 -25 46 8 18 40 23 50 7 3 -5
17 -10 29 -10 13 0 29 -7 36 -15 14 -17 46 -20 55 -4 10 15 -25 49 -51 49 -12
0 -29 3 -38 6 -19 7 -21 45 -4 62 8 8 4 20 -16 47 -21 28 -34 35 -59 34 -18 0
-43 -8 -57 -17z m80 -43 c9 -17 7 -27 -12 -55 -13 -18 -25 -34 -28 -34 -15 1
-50 41 -50 58 0 21 35 51 62 51 10 1 22 -8 28 -20z"/>
<path d="M1797 1363 c-4 -3 -7 -25 -7 -48 0 -24 -7 -59 -15 -78 -17 -40 -20
-143 -6 -152 11 -6 101 49 150 94 36 32 68 47 79 37 6 -7 -53 -130 -76 -158
-21 -25 -12 -72 15 -76 12 -2 27 -10 33 -18 7 -8 21 -14 32 -14 10 0 21 -7 24
-15 4 -8 13 -15 21 -15 23 0 12 53 -13 60 -11 3 -32 14 -47 25 -26 19 -27 23
-16 53 13 39 25 40 73 7 39 -27 61 -31 71 -15 8 13 -34 49 -56 50 -8 0 -25 10
-37 23 l-21 22 23 23 c27 25 51 28 63 9 10 -16 71 -42 80 -34 10 11 -6 37 -29
47 -13 6 -36 19 -53 29 -16 11 -42 20 -57 20 -18 1 -28 6 -28 16 0 26 -23 16
-110 -50 -75 -57 -85 -62 -88 -43 -2 11 1 25 7 31 6 6 11 28 11 49 0 22 7 53
16 69 8 17 13 37 10 45 -6 14 -37 19 -49 7z"/>
<path d="M4025 1291 c-68 -37 -81 -50 -67 -69 6 -9 16 -27 21 -39 6 -11 15
-24 20 -28 6 -3 11 -15 11 -25 0 -10 6 -23 13 -27 7 -4 21 -25 32 -47 24 -46
40 -54 64 -32 10 9 22 16 27 16 6 0 25 15 43 34 42 43 40 82 -5 111 -20 12
-36 34 -43 57 -21 68 -55 82 -116 49z m63 -33 c20 -20 14 -55 -13 -72 -20 -13
-28 -14 -45 -4 -29 19 -25 54 8 72 33 19 35 19 50 4z m75 -102 c24 -19 21 -41
-9 -65 -34 -27 -60 -27 -74 0 -17 31 -8 62 20 70 37 10 43 10 63 -5z"/>
<path d="M3877 1202 c-13 -15 -17 -39 -17 -115 0 -53 -3 -97 -6 -97 -3 0 -22
17 -42 38 -20 21 -56 52 -78 70 -41 31 -41 31 -59 12 -14 -16 -16 -23 -7 -32
7 -7 12 -22 12 -34 0 -12 7 -27 15 -34 8 -7 15 -23 15 -35 0 -12 7 -28 15 -35
8 -7 15 -20 15 -30 0 -19 30 -50 48 -50 17 0 15 35 -3 50 -8 7 -15 22 -15 33
0 11 -6 25 -14 31 -19 15 -30 66 -15 66 7 0 38 -27 71 -60 32 -33 67 -60 77
-60 16 0 19 8 20 53 0 28 -4 68 -8 88 -12 52 1 67 28 33 11 -14 21 -33 21 -40
0 -19 40 -94 51 -94 14 0 11 55 -5 87 -8 15 -30 59 -49 98 -19 38 -39 71 -44
72 -5 2 -17 -5 -26 -15z"/>
<path d="M2196 1125 c-9 -13 -16 -33 -16 -43 0 -11 -7 -25 -15 -32 -8 -7 -15
-22 -15 -34 -1 -11 -7 -32 -15 -46 -18 -32 -19 -80 -2 -80 14 0 47 60 47 85 0
7 7 28 16 47 39 77 44 91 44 109 0 27 -25 24 -44 -6z"/>
<path d="M2291 1089 c-12 -15 -21 -39 -21 -52 0 -13 -7 -32 -15 -43 -8 -10
-15 -28 -15 -40 0 -11 -7 -29 -15 -40 -21 -28 -19 -54 4 -54 23 0 32 12 41 54
4 25 11 31 30 31 23 0 25 -5 30 -50 5 -53 31 -101 49 -90 16 9 13 52 -5 80
-18 28 -5 65 24 65 10 0 23 5 30 12 15 15 14 17 16 -66 1 -65 3 -70 36 -97 65
-55 151 -51 206 9 31 34 34 43 34 97 0 57 -2 63 -38 98 -35 35 -42 37 -100 37
-57 0 -66 -3 -91 -30 -31 -34 -41 -31 -41 15 0 34 -33 60 -102 81 -34 11 -37
10 -57 -17z m95 -40 c19 -11 34 -24 34 -29 0 -20 -34 -40 -70 -40 -47 0 -61
27 -36 65 20 30 29 31 72 4z m268 -83 c20 -23 36 -46 36 -51 0 -13 -33 -79
-48 -97 -10 -13 -30 -18 -62 -18 -64 0 -100 36 -100 102 0 40 5 50 35 77 54
47 94 43 139 -13z"/>
<path d="M3590 1067 c0 -18 7 -42 15 -53 8 -10 15 -30 15 -44 0 -14 7 -36 15
-50 8 -14 14 -38 15 -53 0 -28 24 -47 40 -31 9 10 -8 86 -28 121 -6 12 -12 30
-12 39 0 24 -39 104 -51 104 -5 0 -9 -15 -9 -33z"/>
<path d="M3400 1046 c-75 -24 -111 -95 -88 -173 19 -67 67 -103 136 -103 58 0
91 18 124 68 22 34 24 114 3 132 -8 7 -15 16 -15 21 0 16 -35 44 -71 57 -41
14 -42 14 -89 -2z m114 -67 c34 -40 41 -72 26 -109 -13 -32 -66 -70 -96 -70
-11 0 -36 14 -57 31 -34 28 -37 35 -37 81 0 69 27 98 92 98 39 0 50 -4 72 -31z"/>
<path d="M3111 990 c-29 -25 -61 -86 -61 -118 0 -30 26 -80 58 -112 21 -22 32
-25 94 -24 57 0 73 4 84 19 8 10 14 23 14 27 0 17 -31 20 -49 4 -28 -26 -93
-21 -121 9 -20 21 -24 36 -24 82 1 46 5 59 25 74 33 26 69 34 90 20 31 -18 51
-14 47 12 -3 20 -9 22 -68 24 -53 2 -69 -1 -89 -17z"/>
<path d="M2847 834 c-20 -21 -5 -34 39 -34 38 0 45 3 42 18 -2 11 -14 18 -38
20 -20 2 -39 0 -43 -4z"/>
</g>
</svg>
